# xmcd
#
# Track frame offsets: 
#        183
#        17678
#        38328
#        58833
#        74365
#        91873
#        111733
#        128975
#        143438
#        163005
#        191623
#        211368
#        228395
#
# Disc length: 3166 seconds
#
# Revision: 2
# Processed by: cddbd v1.5.2PL0 Copyright (c) Steve Scherf et al.
# Submitted via: ExactAudioCopyFreeDBPlugin 1.0
#
DISCID=b30c5c0d
DTITLE=Various Artist - Poeten CD1 - das liedermacher album
DYEAR=1992
DGENRE=Deutsch
TTITLE0=Pe Werner - Kribbeln im Bauch
TTITLE1=PUR - Hab' mich wieder mal an dir betrunken
TTITLE2=Pete Wyoming Bender - Ich habe diese Frau geliebt
TTITLE3=Heinz Rudolf Kunze - Dein ist mein ganzes Herz
TTITLE4=Schweizer - 13 Tage
TTITLE5=Hannes Wader - Manche Stadt
TTITLE6=Karat - Über sieben Brücken musst du geh'n
TTITLE7=Klaus Hoffmann - Blinde Katharina
TTITLE8=Ulla Meinecke - Nie wieder
TTITLE9=Hannes Wader - Es ist an der Zeit
TTITLE10=Achim Reichel - Der Klabautermann
TTITLE11=Edo Zanki - Süsse Lügen
TTITLE12=Bettina Wegner - Kinder
EXTD=Das Liedermacheralbum - starke Texte, gefühlvolle Musik
EXTT0=
EXTT1=
EXTT2=
EXTT3=
EXTT4=
EXTT5=
EXTT6=
EXTT7=
EXTT8=
EXTT9=
EXTT10=
EXTT11=
EXTT12=
PLAYORDER=
